<svg width="680" height="400" viewBox="0 0 680 400" xmlns="http://www.w3.org/2000/svg">
<defs>
  <pattern id="grid" width="20" height="20" patternUnits="userSpaceOnUse">
    <path d="M 20 0 L 0 0 0 20" fill="none" stroke="#0f0f0f" stroke-width="0.5"/>
  </pattern>
</defs>
<rect width="680" height="400" fill="url(#grid)"/>

<g transform="translate(200, 195)">
  <ellipse cx="0" cy="0" rx="130" ry="32" fill="none" stroke="#003a1a" stroke-width="22" opacity="0.6"/>
  <ellipse cx="0" cy="0" rx="108" ry="26" fill="none" stroke="#00cc66" stroke-width="12" opacity="0.3"/>
  <ellipse cx="0" cy="0" rx="88" ry="20" fill="none" stroke="#00ff88" stroke-width="6" opacity="0.15"/>
  <circle cx="0" cy="0" r="62" fill="#050808"/>
  <circle cx="0" cy="0" r="56" fill="#030606"/>
  <text x="0" y="8" text-anchor="middle" font-family="monospace" fill="#00cc66" font-size="26" font-weight="bold" letter-spacing="6">NB</text>
  <circle cx="100" cy="-10" r="4" fill="#00cc66" opacity="0.8"/>
  <circle cx="112" cy="5" r="2.5" fill="#00cc66" opacity="0.5"/>
  <circle cx="92" cy="14" r="2" fill="#00cc66" opacity="0.3"/>
  <circle cx="-102" cy="-8" r="3.5" fill="#00cc66" opacity="0.6"/>
  <circle cx="-95" cy="10" r="2" fill="#00cc66" opacity="0.4"/>
  <circle cx="75" cy="-22" r="2" fill="#ff4444" opacity="0.6"/>
  <circle cx="-78" cy="-20" r="2" fill="#ff4444" opacity="0.5"/>
  <circle cx="60" cy="24" r="1.5" fill="#ffaa00" opacity="0.5"/>
</g>

<g transform="translate(370, 120)">
  <text x="0" y="0" font-family="monospace" fill="#00cc66" font-size="36" font-weight="bold" letter-spacing="2">NOTHING</text>
  <text x="0" y="46" font-family="monospace" fill="#ffffff" font-size="36" font-weight="bold" letter-spacing="2">BROWSER</text>
  <line x1="0" y1="62" x2="270" y2="62" stroke="#1a1a1a" stroke-width="1"/>
  <line x1="0" y1="138" x2="270" y2="138" stroke="#1a1a1a" stroke-width="1"/>
  <text x="0" y="90" font-family="monospace" fill="#555" font-size="11" letter-spacing="1">CREATED BY</text>
  <text x="0" y="108" font-family="monospace" fill="#00cc66" font-size="13" font-weight="bold" letter-spacing="1">ERNEST TECH HOUSE</text>
  <text x="0" y="158" font-family="monospace" fill="#555" font-size="11" letter-spacing="1">CODED BY</text>
  <text x="0" y="176" font-family="monospace" fill="#ffffff" font-size="13" font-weight="bold" letter-spacing="1">PEASE ERNEST</text>
  <line x1="0" y1="195" x2="270" y2="195" stroke="#1a1a1a" stroke-width="1"/>
  <text x="0" y="215" font-family="monospace" fill="#2a2a2a" font-size="10" letter-spacing="2">DOES NOTHING... EXCEPT EVERYTHING THAT MATTERS.</text>
</g>

<line x1="40" y1="40" x2="70" y2="40" stroke="#00cc66" stroke-width="1" opacity="0.4"/>
<line x1="40" y1="40" x2="40" y2="70" stroke="#00cc66" stroke-width="1" opacity="0.4"/>
<line x1="640" y1="40" x2="610" y2="40" stroke="#00cc66" stroke-width="1" opacity="0.4"/>
<line x1="640" y1="40" x2="640" y2="70" stroke="#00cc66" stroke-width="1" opacity="0.4"/>
<line x1="40" y1="360" x2="70" y2="360" stroke="#00cc66" stroke-width="1" opacity="0.4"/>
<line x1="40" y1="360" x2="40" y2="330" stroke="#00cc66" stroke-width="1" opacity="0.4"/>
<line x1="640" y1="360" x2="610" y2="360" stroke="#00cc66" stroke-width="1" opacity="0.4"/>
<line x1="640" y1="360" x2="640" y2="330" stroke="#00cc66" stroke-width="1" opacity="0.4"/>
</svg>
